<svg width="218" height="48" viewBox="0 0 218 48" fill="none" xmlns="http://www.w3.org/2000/svg">
<g clip-path="url(#clip0_2_3683)">
<path d="M2.32512 34.594C3.26707 34.0623 4.3671 33.8788 5.43155 34.0756C6.49601 34.2723 7.45667 34.8369 8.14445 35.6698C10.1442 38.0604 13.0505 39.2557 16.8634 39.2557C21.9428 39.2557 24.2526 37.2635 24.2526 34.4944C24.2767 33.7389 24.0845 32.9921 23.6985 32.3413C23.3126 31.6904 22.7487 31.1624 22.0728 30.8189C19.614 29.5171 16.9957 28.5393 14.2837 27.9103C10.8755 27.0769 7.63793 25.6615 4.71484 23.7268C1.87517 21.6649 0.365355 18.5671 0.365355 14.4433C0.28616 12.5898 0.644787 10.7436 1.41238 9.05338C2.17998 7.36314 3.33511 5.87598 4.78484 4.71155C7.81606 2.24693 11.632 0.943279 15.5436 1.03601C18.0679 0.962903 20.5786 1.42913 22.9069 2.40331C25.2352 3.37748 27.3272 4.83703 29.042 6.6838C29.4915 7.16972 29.8251 7.75039 30.018 8.38256C30.211 9.01473 30.2583 9.68212 30.1564 10.335C30.0545 10.9879 29.8061 11.6095 29.4297 12.1536C29.0532 12.6976 28.5584 13.15 27.9821 13.4771C27.0978 13.964 26.0735 14.1365 25.0776 13.9663C24.0817 13.7962 23.1737 13.2934 22.5028 12.5408C21.6252 11.5967 20.554 10.8518 19.3618 10.3568C18.1696 9.86179 16.8844 9.62826 15.5936 9.67204C11.834 9.67204 9.52428 11.5447 9.52428 14.1843C9.51509 14.8656 9.67231 15.5389 9.98235 16.1462C10.2924 16.7535 10.746 17.2767 11.3041 17.6706C13.4997 18.9209 15.8538 19.8723 18.3033 20.4994L21.4729 21.4955C22.4948 21.7978 23.4967 22.1638 24.4725 22.5912C25.4952 22.9204 26.4727 23.3755 27.3822 23.9459C29.1124 24.9376 30.6012 26.2982 31.7417 27.9302C33.2546 30.5634 33.7834 33.6451 33.2344 36.6295C32.6854 39.6138 31.094 42.3084 28.742 44.2361C25.6091 46.7396 21.5595 47.9913 16.5935 47.9913C9.59428 47.9913 4.27489 45.5409 0.965276 41.3574C0.561255 40.8409 0.273828 40.2437 0.122601 39.6066C-0.0286265 38.9694 -0.0400916 38.3072 0.0889895 37.6652C0.218071 37.0232 0.484656 36.4165 0.87056 35.8864C1.25646 35.3564 1.7526 34.9156 2.32512 34.594Z" fill="white"/>
<path d="M66.1677 17.4712C68.5374 19.8618 69.7273 23.0792 69.7273 27.2727V43.7179C69.7273 44.8433 69.2785 45.9227 68.4797 46.7184C67.6809 47.5142 66.5975 47.9613 65.4678 47.9613C64.9089 47.9613 64.3555 47.8514 63.8392 47.6381C63.323 47.4247 62.8541 47.112 62.4594 46.7178C62.0646 46.3237 61.7519 45.8558 61.5389 45.341C61.3259 44.8263 61.217 44.2747 61.2183 43.7179V28.2986C61.2183 23.9856 58.6386 21.6647 54.679 21.6647C50.2596 21.6647 47.4199 24.3043 47.4199 29.6334V43.698C47.4199 44.8234 46.9711 45.9027 46.1723 46.6985C45.3735 47.4943 44.2901 47.9413 43.1604 47.9413C42.0307 47.9413 40.9473 47.4943 40.1485 46.6985C39.3496 45.9027 38.9009 44.8234 38.9009 43.698V6.15572C38.9009 5.59895 39.0111 5.04764 39.2253 4.53338C39.4395 4.01912 39.7534 3.55199 40.1491 3.15875C40.5447 2.76552 41.0144 2.45393 41.5311 2.24177C42.0478 2.02961 42.6015 1.92106 43.1604 1.92237C43.7193 1.92106 44.2729 2.02961 44.7897 2.24177C45.3064 2.45393 45.776 2.76552 46.1717 3.15875C46.5674 3.55199 46.8813 4.01912 47.0955 4.53338C47.3096 5.04764 47.4199 5.59895 47.4199 6.15572V18.4175C49.4197 15.4292 52.7693 13.9052 57.2487 13.9052C58.903 13.8454 60.5515 14.1318 62.0878 14.7461C63.6241 15.3603 65.0139 16.2886 66.1677 17.4712Z" fill="white"/>
<path d="M102.883 47.9912C101.754 47.9912 100.67 47.5441 99.8714 46.7484C99.0726 45.9526 98.6238 44.8733 98.6238 43.7479V43.4789C96.624 46.4672 93.2744 47.9912 88.7949 47.9912C87.13 48.0549 85.47 47.7726 83.9207 47.162C82.3713 46.5515 80.9666 45.6262 79.796 44.4451C77.4862 42.0645 76.2964 38.8372 76.2964 34.6437V19.1048C76.2964 17.9794 76.7451 16.9001 77.544 16.1043C78.3428 15.3086 79.4262 14.8615 80.5559 14.8615C81.1169 14.8589 81.673 14.9667 82.1921 15.1788C82.7112 15.3908 83.1831 15.703 83.5808 16.0973C83.9784 16.4916 84.2939 16.9602 84.5092 17.4764C84.7245 17.9925 84.8354 18.5459 84.8354 19.1048V33.6177C84.8354 37.9407 87.4051 40.2516 91.3646 40.2516C95.7841 40.2516 98.6238 37.612 98.6238 32.283V19.1048C98.6238 17.9794 99.0726 16.9001 99.8714 16.1043C100.67 15.3086 101.754 14.8615 102.883 14.8615C104.013 14.8615 105.096 15.3086 105.895 16.1043C106.694 16.9001 107.143 17.9794 107.143 19.1048V43.7479C107.143 44.8733 106.694 45.9526 105.895 46.7484C105.096 47.5441 104.013 47.9912 102.883 47.9912Z" fill="white"/>
<path d="M117.722 43.0606C114.543 39.8221 112.763 35.4727 112.763 30.9433C112.763 26.4138 114.543 22.0644 117.722 18.8259C119.361 17.2136 121.311 15.9482 123.453 15.106C125.596 14.2638 127.888 13.8621 130.19 13.9252C134.329 13.8771 138.349 15.3084 141.519 17.9593C142.014 18.3891 142.398 18.9306 142.639 19.5385C142.88 20.1464 142.972 20.8031 142.907 21.4536C142.841 22.1041 142.62 22.7295 142.262 23.2775C141.904 23.8254 141.42 24.28 140.849 24.6032L140.709 24.6829C139.945 25.1077 139.066 25.2833 138.196 25.1851C137.326 25.0868 136.509 24.7196 135.86 24.135C134.252 22.8074 132.218 22.1003 130.13 22.1429C128.956 22.1039 127.786 22.3059 126.694 22.7364C125.601 23.1669 124.609 23.8166 123.779 24.6452C122.949 25.4738 122.299 26.4636 121.869 27.5531C121.44 28.6425 121.24 29.8084 121.281 30.9781C121.319 32.6569 121.829 34.2915 122.754 35.6955C123.679 37.0995 124.981 38.2165 126.512 38.9194C128.043 39.6222 129.741 39.8826 131.413 39.6708C133.085 39.4591 134.664 38.7837 135.97 37.7216C136.612 37.1498 137.417 36.791 138.273 36.6947C139.13 36.5983 139.995 36.7692 140.749 37.1837L140.849 37.2335C141.427 37.5537 141.918 38.0079 142.282 38.5577C142.646 39.1074 142.871 39.7364 142.939 40.3914C143.006 41.0463 142.915 41.7079 142.671 42.32C142.427 42.932 142.039 43.4765 141.539 43.9072C138.366 46.5736 134.341 48.0221 130.19 47.9912C127.886 48.0503 125.593 47.6439 123.45 46.7965C121.307 45.9492 119.358 44.6783 117.722 43.0606Z" fill="white"/>
<path d="M148.398 43.718V4.24329C148.398 3.11789 148.847 2.0386 149.646 1.24282C150.444 0.447048 151.528 0 152.657 0C153.787 0 154.871 0.447048 155.669 1.24282C156.468 2.0386 156.917 3.11789 156.917 4.24329V43.718C156.917 44.8434 156.468 45.9227 155.669 46.7185C154.871 47.5143 153.787 47.9613 152.657 47.9613C151.528 47.9613 150.444 47.5143 149.646 46.7185C148.847 45.9227 148.398 44.8434 148.398 43.718Z" fill="white"/>
<path d="M171.196 34.3647C172.325 38.4187 175.425 40.4208 180.504 40.4208C182.518 40.4907 184.503 39.9336 186.184 38.8271C186.788 38.3958 187.502 38.1443 188.244 38.102C188.986 38.0596 189.724 38.2282 190.373 38.588C190.945 38.9117 191.424 39.3747 191.767 39.9336C192.109 40.4924 192.303 41.1288 192.331 41.783C192.359 42.4372 192.22 43.0877 191.927 43.6736C191.633 44.2594 191.195 44.7614 190.653 45.1323C187.598 47.102 184.013 48.099 180.375 47.9911C174.895 47.9911 170.536 46.3774 167.236 43.16C164.073 39.9031 162.299 35.5518 162.288 31.0199C162.277 26.488 164.029 22.1281 167.176 18.8557C168.815 17.2226 170.774 15.9444 172.932 15.1011C175.089 14.2578 177.398 13.8676 179.715 13.9549C181.941 13.8823 184.158 14.2816 186.217 15.1265C188.277 15.9713 190.134 17.2424 191.663 18.8557C193.226 20.4586 194.452 22.3569 195.268 24.4387C196.083 26.5206 196.473 28.744 196.413 30.978C196.399 31.8825 196.029 32.7453 195.381 33.3793C194.734 34.0133 193.861 34.3674 192.953 34.3647H171.196ZM187.894 27.91C187.554 26.0222 186.537 24.3218 185.032 23.1252C183.528 21.9287 181.638 21.3175 179.715 21.4056C175.155 21.4056 172.055 23.7863 171.066 27.91H187.894Z" fill="white"/>
<path d="M209.701 31.4064C208.057 31.4044 206.45 31.8882 205.082 32.7965C203.714 33.7049 202.648 34.9969 202.017 36.5093C201.387 38.0216 201.221 39.6862 201.54 41.2925C201.86 42.8989 202.65 44.3747 203.812 45.5333C204.974 46.6919 206.454 47.4813 208.066 47.8015C209.678 48.1217 211.349 47.9583 212.868 47.3321C214.387 46.7059 215.685 45.645 216.599 44.2835C217.512 42.9221 218 41.3214 218 39.6838C218 37.4902 217.126 35.3863 215.57 33.8343C214.014 32.2823 211.903 31.409 209.701 31.4064ZM209.701 42.5326C209.135 42.5346 208.581 42.3692 208.109 42.0573C207.638 41.7455 207.27 41.3013 207.052 40.7809C206.834 40.2605 206.776 39.6874 206.885 39.1342C206.994 38.5809 207.266 38.0724 207.665 37.673C208.065 37.2735 208.574 37.0012 209.129 36.8905C209.684 36.7798 210.26 36.8356 210.783 37.0509C211.306 37.2662 211.753 37.6314 212.068 38.1001C212.383 38.5688 212.551 39.12 212.551 39.6838C212.551 40.4376 212.251 41.1607 211.716 41.6947C211.182 42.2287 210.458 42.53 209.701 42.5326Z" fill="white"/>
</g>
<defs>
<clipPath id="clip0_2_3683">
<rect width="218" height="48" fill="white"/>
</clipPath>
</defs>
</svg>
